<svg width="49" height="49" viewBox="0 0 49 49" fill="none" xmlns="http://www.w3.org/2000/svg">
<g filter="url(#filter0_i_2260_30570)">
<rect width="47.7867" height="48" rx="12.8" fill="url(#paint0_linear_2260_30570)"/>
<rect x="0.527059" y="0.527059" width="46.7325" height="46.9459" rx="12.2729" stroke="#1675FF" stroke-width="1.05412"/>
<g style="mix-blend-mode:overlay">
<path d="M23.8927 34.0401C25.2111 34.0401 26.5166 33.7803 27.7347 33.2757C28.9528 32.7711 30.0595 32.0315 30.9918 31.0991C31.924 30.1668 32.6635 29.0599 33.168 27.8418C33.6724 26.6237 33.932 25.3181 33.932 23.9997C33.9319 22.6812 33.6721 21.3757 33.1675 20.1576C32.6629 18.9395 31.9233 17.8328 30.9909 16.9005C30.0586 15.9683 28.9517 15.2288 27.7336 14.7244C26.5155 14.2199 25.2099 13.9603 23.8915 13.9603M23.8927 34.0401C22.5742 34.0402 21.2686 33.7806 20.0505 33.2761C18.8324 32.7717 17.7255 32.0322 16.7932 31.0999C15.8609 30.1677 15.1213 29.061 14.6166 27.8429C14.112 26.6248 13.8522 25.3193 13.8522 24.0008C13.8521 22.6824 14.1117 21.3768 14.6162 20.1587C15.1207 18.9406 15.8601 17.8337 16.7924 16.9014C17.7246 15.969 18.8313 15.2294 20.0494 14.7248C21.2675 14.2202 22.573 13.9604 23.8915 13.9603M23.8927 34.0401C26.9727 34.04 28.2887 28.2803 28.2884 24C28.2882 19.7196 26.9715 13.9602 23.8915 13.9603M23.8927 34.0401C20.8126 34.0403 19.496 28.2809 19.4957 24.0005C19.4954 19.7202 20.8114 13.9605 23.8915 13.9603M14.4097 20.6542L33.374 20.653M14.4101 27.3474L33.3744 27.3463" stroke="white" stroke-width="1.78487" stroke-linecap="round" stroke-linejoin="round"/>
</g>
</g>
<g style="mix-blend-mode:soft-light" opacity="0.25">
<line y1="-0.5" x2="48.0716" y2="-0.5" transform="matrix(-4.37114e-08 1 1 4.37114e-08 10.2676 0)" stroke="white"/>
<line y1="-0.5" x2="48.0716" y2="-0.5" transform="matrix(-1 -8.74228e-08 -8.74228e-08 1 48.0723 38.8027)" stroke="white"/>
</g>
<g style="mix-blend-mode:soft-light" opacity="0.25">
<line y1="-0.5" x2="48.0716" y2="-0.5" transform="matrix(4.37114e-08 -1 -1 -4.37114e-08 37.8047 48.0713)" stroke="white"/>
<line y1="-0.5" x2="48.0716" y2="-0.5" transform="matrix(1 8.74228e-08 8.74228e-08 -1 0 9.26855)" stroke="white"/>
</g>
<defs>
<filter id="filter0_i_2260_30570" x="0" y="0" width="47.7871" height="52" filterUnits="userSpaceOnUse" color-interpolation-filters="sRGB">
<feFlood flood-opacity="0" result="BackgroundImageFix"/>
<feBlend mode="normal" in="SourceGraphic" in2="BackgroundImageFix" result="shape"/>
<feColorMatrix in="SourceAlpha" type="matrix" values="0 0 0 0 0 0 0 0 0 0 0 0 0 0 0 0 0 0 127 0" result="hardAlpha"/>
<feMorphology radius="2" operator="erode" in="SourceAlpha" result="effect1_innerShadow_2260_30570"/>
<feOffset dy="4"/>
<feGaussianBlur stdDeviation="2"/>
<feComposite in2="hardAlpha" operator="arithmetic" k2="-1" k3="1"/>
<feColorMatrix type="matrix" values="0 0 0 0 1 0 0 0 0 1 0 0 0 0 1 0 0 0 0.25 0"/>
<feBlend mode="normal" in2="shape" result="effect1_innerShadow_2260_30570"/>
</filter>
<linearGradient id="paint0_linear_2260_30570" x1="23.8933" y1="0" x2="23.8933" y2="48" gradientUnits="userSpaceOnUse">
<stop stop-color="#1675FF"/>
<stop offset="1" stop-color="#0D4699"/>
</linearGradient>
</defs>
</svg>


