<svg width="131" height="34" viewBox="0 0 131 34" fill="none" xmlns="http://www.w3.org/2000/svg">
<path fill-rule="evenodd" clip-rule="evenodd" d="M6 0C2.68629 0 0 2.68629 0 6V28C0 31.3137 2.68629 34 6 34H28C31.3137 34 34 31.3137 34 28V6C34 2.68629 31.3137 0 28 0H6ZM12.0302 5.87988L10.5977 9.37167H22.4412C22.6025 9.37167 22.7644 9.39243 22.911 9.45992C23.4124 9.69082 24.1171 10.2394 24.1171 11.1623C24.1171 12.0853 23.4124 12.6338 22.911 12.8647C22.7644 12.9322 22.6025 12.953 22.4412 12.953H16.865L15.2534 16.6238H22.786C23.0759 16.6238 23.3666 16.6035 23.645 16.5226C25.1827 16.0753 27.6089 14.5546 27.6089 11.1623C27.6089 7.43776 24.5648 6.08879 23.0427 5.87988H12.0302ZM12.5841 10.4141H16.5235L13.5689 17.5767H24.3129L12.405 29.5741L15.7177 21.158H8.10742L12.5841 10.4141Z" fill="url(#paint0_linear_1_12515)"/>
<path fill-rule="evenodd" clip-rule="evenodd" d="M6 0C2.68629 0 0 2.68629 0 6V28C0 31.3137 2.68629 34 6 34H28C31.3137 34 34 31.3137 34 28V6C34 2.68629 31.3137 0 28 0H6ZM12.0302 5.87988L10.5977 9.37167H22.4412C22.6025 9.37167 22.7644 9.39243 22.911 9.45992C23.4124 9.69082 24.1171 10.2394 24.1171 11.1623C24.1171 12.0853 23.4124 12.6338 22.911 12.8647C22.7644 12.9322 22.6025 12.953 22.4412 12.953H16.865L15.2534 16.6238H22.786C23.0759 16.6238 23.3666 16.6035 23.645 16.5226C25.1827 16.0753 27.6089 14.5546 27.6089 11.1623C27.6089 7.43776 24.5648 6.08879 23.0427 5.87988H12.0302ZM12.5841 10.4141H16.5235L13.5689 17.5767H24.3129L12.405 29.5741L15.7177 21.158H8.10742L12.5841 10.4141Z" fill="url(#paint1_linear_1_12515)" fill-opacity="0.2"/>
<path d="M39 30.0096H41.8853V25.8089H45.19C47.4714 25.8089 49.1825 24.219 49.1825 22.0935C49.1825 19.9011 47.505 18.2944 45.19 18.2944H39V30.0096ZM41.8853 23.4324V20.7546H44.8545C45.6933 20.7546 46.2636 21.3069 46.2636 22.1102C46.2636 22.8968 45.6933 23.4324 44.8545 23.4324H41.8853Z" fill="#1D2026"/>
<path d="M50.3284 30.0096H53.2137V25.7419H55.4113L57.6256 30.0096H60.8464L58.2798 25.3235C59.605 24.721 60.4774 23.4993 60.4774 22.0265C60.4774 19.8508 58.7495 18.2944 56.3339 18.2944H50.3284V30.0096ZM53.2137 23.3989V20.7546H56.0655C56.9546 20.7546 57.5585 21.2901 57.5585 22.0767C57.5585 22.8633 56.9546 23.3989 56.0655 23.3989H53.2137Z" fill="#1D2026"/>
<path d="M67.4786 30.1937C71.0014 30.1937 73.7525 27.5327 73.7525 24.152C73.7525 20.7713 71.0014 18.1103 67.4786 18.1103C63.9558 18.1103 61.2047 20.7713 61.2047 24.152C61.2047 27.5327 63.9558 30.1937 67.4786 30.1937ZM67.4786 27.5494C65.5998 27.5494 64.1739 26.0934 64.1739 24.152C64.1739 22.2106 65.5998 20.7546 67.4786 20.7546C69.3574 20.7546 70.7833 22.2106 70.7833 24.152C70.7833 26.0934 69.3574 27.5494 67.4786 27.5494Z" fill="#1D2026"/>
<path d="M72.7967 30.0096H76.1014L78.886 26.0934L81.6875 30.0096H85.1264L80.5971 23.9679L84.7741 18.2944H81.4694L78.9531 21.8257L76.4369 18.2944H72.998L77.2421 23.9679L72.7967 30.0096Z" fill="#1D2026"/>
<path d="M85.1492 30.0096H88.0345V18.2944H85.1492V30.0096Z" fill="#1D2026"/>
<path d="M89.6463 30.0096H98.9733V27.516H92.5317V25.3068H96.7422V22.8968H92.5317V20.7881H98.9062V18.2944H89.6463V30.0096Z" fill="#1D2026"/>
<path d="M104.664 30.177C107.851 30.177 109.814 28.7042 109.814 26.3277C109.814 24.5202 108.623 23.3654 106.358 22.9972L103.926 22.5956C102.936 22.4282 102.533 22.1437 102.533 21.5579C102.533 20.922 103.255 20.537 104.429 20.537C105.67 20.537 106.794 20.9722 108.036 21.9261L109.562 19.8006C108.27 18.763 106.375 18.127 104.63 18.127C101.628 18.127 99.8158 19.4994 99.8158 21.7755C99.8158 23.4993 100.873 24.6541 102.785 24.9888L105.368 25.4407C106.543 25.6415 106.996 25.9595 106.996 26.6122C106.996 27.3319 106.207 27.7503 104.882 27.7503C103.523 27.7503 102.399 27.2817 100.973 26.1269L99.3629 28.2189C100.822 29.4573 102.768 30.177 104.664 30.177Z" fill="#1D2026"/>
<path d="M39.0081 15.5888H47.9944V13.0699H41.8651V3.98844H39.0081V15.5888Z" fill="#1D2026"/>
<path d="M49.2521 15.5888H52.1091V3.98844H49.2521V15.5888Z" fill="#1D2026"/>
<path d="M59.5189 15.7711C62.9241 15.7711 65.4156 13.219 65.4156 9.72234V8.89374H59.1867V11.363H62.3261C61.9939 12.4401 60.9142 13.1859 59.5687 13.1859C57.6585 13.1859 56.23 11.7275 56.23 9.78863C56.23 7.86628 57.6087 6.42452 59.4691 6.42452C60.6318 6.42452 61.6284 6.92168 62.3925 7.88285L64.4024 6.07651C63.2895 4.66789 61.4457 3.80615 59.4691 3.80615C55.9974 3.80615 53.2899 6.42452 53.2899 9.78863C53.2899 13.1527 56.0141 15.7711 59.5189 15.7711Z" fill="#1D2026"/>
<path d="M66.5933 15.5888H69.4503V11.0481H74.2342V15.5888H77.0912V3.98844H74.2342V8.4463H69.4503V3.98844H66.5933V15.5888Z" fill="#1D2026"/>
<path d="M81.826 15.5888H84.683V6.50738H88.4869V3.98844H78.0222V6.50738H81.826V15.5888Z" fill="#1D2026"/>
<path d="M89.4173 15.5888H92.1082V8.59545L97.5565 15.5888H100.081V3.98844H97.3904V10.7167L92.1082 3.98844H89.4173V15.5888Z" fill="#1D2026"/>
<path d="M101.673 15.5888H104.53V3.98844H101.673V15.5888Z" fill="#1D2026"/>
<path d="M106.126 15.5888H108.817V8.59545L114.265 15.5888H116.79V3.98844H114.099V10.7167L108.817 3.98844H106.126V15.5888Z" fill="#1D2026"/>
<path d="M124.195 15.7711C127.6 15.7711 130.092 13.219 130.092 9.72234V8.89374H123.863V11.363H127.002C126.67 12.4401 125.59 13.1859 124.245 13.1859C122.335 13.1859 120.906 11.7275 120.906 9.78863C120.906 7.86628 122.285 6.42452 124.145 6.42452C125.308 6.42452 126.305 6.92168 127.069 7.88285L129.079 6.07651C127.966 4.66789 126.122 3.80615 124.145 3.80615C120.674 3.80615 117.966 6.42452 117.966 9.78863C117.966 13.1527 120.69 15.7711 124.195 15.7711Z" fill="#1D2026"/>
<defs>
<linearGradient id="paint0_linear_1_12515" x1="17" y1="0" x2="17" y2="34" gradientUnits="userSpaceOnUse">
<stop stop-color="#1675FF"/>
<stop offset="1" stop-color="#0752BE"/>
</linearGradient>
<linearGradient id="paint1_linear_1_12515" x1="34" y1="17" x2="0" y2="17" gradientUnits="userSpaceOnUse">
<stop stop-color="white" stop-opacity="0"/>
<stop offset="1" stop-color="white"/>
</linearGradient>
</defs>
</svg>

