<svg width="32" height="32" viewBox="0 0 32 32" fill="none" xmlns="http://www.w3.org/2000/svg" class="w-[26px] sm:w-[32px] h-auto"><path d="M9.33496 20C7.12583 20 5.33496 21.7908 5.33496 24C5.33496 26.2091 7.12583 28 9.33496 28C11.5441 28 13.335 26.2091 13.335 24C13.335 21.7908 11.5441 20 9.33496 20Z" stroke="#ffffff" stroke-width="2" stroke-linecap="round" stroke-linejoin="round"></path><path d="M22.668 20C20.4588 20 18.668 21.7908 18.668 24C18.668 26.2091 20.4588 28 22.668 28C24.8772 28 26.668 26.2091 26.668 24C26.668 21.7908 24.8772 20 22.668 20Z" stroke="#ffffff" stroke-width="2" stroke-linecap="round" stroke-linejoin="round"></path><path d="M18.6683 22.667H13.335" stroke="#ffffff" stroke-width="2" stroke-linecap="round" stroke-linejoin="round"></path><path d="M29.3346 17.3337C26.0592 15.697 21.2992 14.667 16.0013 14.667C10.7034 14.667 5.94342 15.697 2.66797 17.3337" stroke="#ffffff" stroke-width="2" stroke-linecap="round" stroke-linejoin="round"></path><path d="M25.3346 15.3334L23.9246 6.28327C23.637 4.43759 21.6322 3.4375 20.0137 4.33226L19.1937 4.78554C17.2038 5.8855 14.7988 5.8855 12.809 4.78554L11.989 4.33226C10.3703 3.4375 8.36554 4.4376 8.07798 6.28327L6.66797 15.3334" stroke="#ffffff" stroke-width="2" stroke-linecap="round" stroke-linejoin="round"></path></svg>